<svg width="454" height="454" viewBox="0 0 454 454" fill="none" xmlns="http://www.w3.org/2000/svg">
<path fill-rule="evenodd" clip-rule="evenodd" d="M332.328 190.35C346.926 157.919 354.97 113.429 354.97 99.3363C354.97 78.716 332.483 62 304.743 62C291.904 62 269.124 72.2072 248.354 84.8301C239.632 89.7617 230.15 95.0801 221.151 98.6248C213.24 100.653 203.202 98.5563 193.798 96.258C185.061 92.8455 176.843 90.4473 169.49 90.4473C141.751 90.4473 135.767 104.844 135.767 127.428C135.767 128.884 135.757 130.5 135.747 132.25C135.693 141.579 135.616 154.692 136.831 167.546C130.659 196.467 112.585 204.246 95.8573 211.445L95.8569 211.445L95.8567 211.445C93.6387 212.4 91.4445 213.344 89.3048 214.326C65.2225 220.879 45 252.969 45 280.328C45 310.964 80.1586 343.266 104.196 347.178C111.391 348.349 120.836 348.022 131.386 347.657H131.387H131.387H131.388H131.388C156.084 346.803 186.834 345.739 208.954 363.179L208.994 363.138C231.424 389.343 269.248 413.223 304.386 409.761C365.735 403.716 393 371.394 393 324.065C393 301.545 367.608 257.061 335.717 216.614C333.419 213.023 331.455 209.131 330.932 205.3C330.372 201.19 331.1 195.913 332.328 190.35Z" fill="#4CA6FF"/>
<path d="M361 227C361 285.542 313.542 333 255 333C196.458 333 149 285.542 149 227C149 168.458 196.458 121 255 121C313.542 121 361 168.458 361 227Z" fill="#003066"/>
<path fill-rule="evenodd" clip-rule="evenodd" d="M196 79C210.912 79 223 68.2548 223 55C223 41.7452 210.912 31 196 31C181.088 31 169 41.7452 169 55C169 68.2548 181.088 79 196 79ZM209.5 53.7997C209.5 48.4957 203.425 44.1997 196 44.1997C188.575 44.1997 182.5 48.4957 182.5 53.7997C182.5 56.3557 183.917 58.6837 186.212 60.3997C186.145 61.1197 185.646 63.0037 182.5 65.7997C182.5 65.7997 187.292 65.7997 191.235 62.7997C192.72 63.1837 194.326 63.3997 196 63.3997C203.425 63.3997 209.5 59.1037 209.5 53.7997Z" fill="#0050B2"/>
<path fill-rule="evenodd" clip-rule="evenodd" d="M419 325C428.941 325 437 316.941 437 307C437 297.059 428.941 289 419 289C409.059 289 401 297.059 401 307C401 316.941 409.059 325 419 325ZM428 306.099C428 302.121 423.95 298.899 419 298.899C414.05 298.899 410 302.121 410 306.099C410 308.016 410.945 309.762 412.475 311.049C412.43 311.589 412.097 313.002 410 315.099C410 315.099 413.195 315.099 415.823 312.849C416.813 313.137 417.884 313.299 419 313.299C423.95 313.299 428 310.077 428 306.099Z" fill="#0050B2"/>
<path fill-rule="evenodd" clip-rule="evenodd" d="M85.5 166C103.449 166 118 155.926 118 143.5C118 131.074 103.449 121 85.5 121C67.5507 121 53 131.074 53 143.5C53 155.926 67.5507 166 85.5 166ZM76 135H96C97.7 135 99 136.3 99 138V150C99 151.7 97.7 153 96 153H76C74.3 153 73 151.7 73 150V138C73 136.3 74.3 135 76 135ZM89 144.8L96.8 150.4L90.5 144L98.1 138L86 144.5L73.8 137.9L81.5 143.9L75.2 150.4L82.9 144.8L86 146.8L89 144.8Z" fill="#4CA6FF"/>
<path fill-rule="evenodd" clip-rule="evenodd" d="M374 68C387.255 68 398 58.598 398 47C398 35.402 387.255 26 374 26C360.745 26 350 35.402 350 47C350 58.598 360.745 68 374 68ZM368.933 40.4667H365.733C365.168 40.4667 364.625 40.6633 364.225 41.0134C363.825 41.3635 363.6 41.8383 363.6 42.3333V53.5333C363.6 54.0284 363.825 54.5032 364.225 54.8533C364.625 55.2033 365.168 55.4 365.733 55.4H382.8C383.366 55.4 383.908 55.2033 384.309 54.8533C384.709 54.5032 384.933 54.0284 384.933 53.5333V42.3333C384.933 41.8383 384.709 41.3635 384.309 41.0134C383.908 40.6633 383.366 40.4667 382.8 40.4667H379.6L377.467 38.6H371.067L368.933 40.4667ZM370.495 44.6335C371.496 43.7583 372.852 43.2667 374.267 43.2667C375.681 43.2667 377.038 43.7583 378.038 44.6335C379.038 45.5087 379.6 46.6957 379.6 47.9333C379.6 49.171 379.038 50.358 378.038 51.2332C377.038 52.1083 375.681 52.6 374.267 52.6C372.852 52.6 371.496 52.1083 370.495 51.2332C369.495 50.358 368.933 49.171 368.933 47.9333C368.933 46.6957 369.495 45.5087 370.495 44.6335ZM376.529 45.9534C375.929 45.4283 375.115 45.1333 374.267 45.1333C373.418 45.1333 372.604 45.4283 372.004 45.9534C371.404 46.4785 371.067 47.1907 371.067 47.9333C371.067 48.6759 371.404 49.3881 372.004 49.9132C372.604 50.4383 373.418 50.7333 374.267 50.7333C375.115 50.7333 375.929 50.4383 376.529 49.9132C377.13 49.3881 377.467 48.6759 377.467 47.9333C377.467 47.1907 377.13 46.4785 376.529 45.9534Z" fill="#0050B2"/>
<path fill-rule="evenodd" clip-rule="evenodd" d="M123 410C140.673 410 155 397.912 155 383C155 368.088 140.673 356 123 356C105.327 356 91 368.088 91 383C91 397.912 105.327 410 123 410ZM116.244 374.599H111.978C111.223 374.599 110.5 374.852 109.966 375.302C109.433 375.752 109.133 376.363 109.133 376.999V391.399C109.133 392.036 109.433 392.646 109.966 393.096C110.5 393.546 111.223 393.799 111.978 393.799H134.733C135.488 393.799 136.211 393.546 136.745 393.096C137.278 392.646 137.578 392.036 137.578 391.399V376.999C137.578 376.363 137.278 375.752 136.745 375.302C136.211 374.852 135.488 374.599 134.733 374.599H130.467L127.622 372.199H119.089L116.244 374.599ZM118.327 379.957C119.661 378.831 121.47 378.199 123.356 378.199C125.242 378.199 127.05 378.831 128.384 379.957C129.717 381.082 130.467 382.608 130.467 384.199C130.467 385.791 129.717 387.317 128.384 388.442C127.05 389.567 125.242 390.199 123.356 390.199C121.47 390.199 119.661 389.567 118.327 388.442C116.994 387.317 116.244 385.791 116.244 384.199C116.244 382.608 116.994 381.082 118.327 379.957ZM126.373 381.654C125.572 380.979 124.487 380.599 123.356 380.599C122.224 380.599 121.139 380.979 120.339 381.654C119.538 382.329 119.089 383.245 119.089 384.199C119.089 385.154 119.538 386.07 120.339 386.745C121.139 387.42 122.224 387.799 123.356 387.799C124.487 387.799 125.572 387.42 126.373 386.745C127.173 386.07 127.622 385.154 127.622 384.199C127.622 383.245 127.173 382.329 126.373 381.654Z" fill="#0050B2"/>
<path fill-rule="evenodd" clip-rule="evenodd" d="M393 178C410.673 178 425 165.912 425 151C425 136.088 410.673 124 393 124C375.327 124 361 136.088 361 151C361 165.912 375.327 178 393 178ZM376.752 138.4H408.181C408.681 138.4 409.161 138.566 409.514 138.861C409.868 139.156 410.067 139.557 410.067 139.975V162.025C410.067 162.442 409.868 162.843 409.514 163.138C409.161 163.434 408.681 163.6 408.181 163.6H376.752C376.252 163.6 375.773 163.434 375.419 163.138C375.065 162.843 374.867 162.442 374.867 162.025V139.975C374.867 139.557 375.065 139.156 375.419 138.861C375.773 138.566 376.252 138.4 376.752 138.4ZM400.628 143.017C399.955 142.695 399.18 142.554 398.408 142.613C397.531 142.68 396.709 143.002 396.086 143.522C395.462 144.043 395.077 144.729 394.997 145.462C394.926 146.107 395.095 146.755 395.48 147.316C395.866 147.878 396.449 148.327 397.151 148.602C397.853 148.877 398.64 148.964 399.403 148.852C400.167 148.741 400.871 148.435 401.419 147.977C401.967 147.519 402.333 146.931 402.467 146.294C402.601 145.656 402.496 144.999 402.167 144.413C401.838 143.826 401.301 143.339 400.628 143.017ZM377.657 161.269C377.834 161.417 378.074 161.5 378.324 161.5H385.896L395.106 153.805L387.488 147.456L377.381 154.962V160.712C377.381 160.921 377.48 161.121 377.657 161.269ZM407.276 161.269C407.453 161.121 407.552 160.921 407.552 160.712V156.108L401.201 151.687L389.452 161.5H406.61C406.86 161.5 407.099 161.417 407.276 161.269Z" fill="#4CA6FF"/>
<ellipse cx="214" cy="418" rx="24" ry="21" fill="#4CA6FF"/>
<circle cx="37" cy="317" r="8" fill="#4CA6FF"/>
<circle cx="281" cy="39" r="10" fill="#4CA6FF"/>
<circle cx="402" cy="236" r="10" fill="#4CA6FF"/>
<circle cx="358" cy="418" r="8" fill="#0050B2"/>
<circle cx="118" cy="74" r="12" fill="#0050B2"/>
<path fill-rule="evenodd" clip-rule="evenodd" d="M45 222C54.9411 222 63 213.941 63 204C63 194.059 54.9411 186 45 186C35.0589 186 27 194.059 27 204C27 213.941 35.0589 222 45 222ZM35.8607 195.6H53.5393C53.8206 195.6 54.0904 195.71 54.2893 195.907C54.4882 196.104 54.6 196.371 54.6 196.65V211.35C54.6 211.628 54.4882 211.895 54.2893 212.092C54.0904 212.289 53.8206 212.4 53.5393 212.4H35.8607C35.5794 212.4 35.3096 212.289 35.1107 212.092C34.9117 211.895 34.8 211.628 34.8 211.35V196.65C34.8 196.371 34.9117 196.104 35.1107 195.907C35.3096 195.71 35.5794 195.6 35.8607 195.6ZM49.2908 198.678C48.9124 198.463 48.4764 198.369 48.0421 198.408C47.5484 198.453 47.0862 198.668 46.7356 199.015C46.3851 199.362 46.1684 199.819 46.1231 200.308C46.0833 200.738 46.1783 201.169 46.3952 201.544C46.6121 201.919 46.9403 202.218 47.3352 202.401C47.7301 202.584 48.1724 202.643 48.6019 202.568C49.0315 202.494 49.4274 202.29 49.7358 201.985C50.0441 201.679 50.25 201.287 50.3253 200.862C50.4006 200.437 50.3416 199.999 50.1565 199.608C49.9714 199.217 49.6691 198.892 49.2908 198.678ZM36.3696 210.846C36.4691 210.944 36.604 211 36.7446 211H41.0038L46.1846 205.87L41.8997 201.637L36.2143 206.641V210.475C36.2143 210.614 36.2702 210.747 36.3696 210.846ZM53.0304 210.846C53.1298 210.747 53.1857 210.614 53.1857 210.475V207.405L49.6129 204.458L43.0042 211H52.6554C52.796 211 52.9309 210.944 53.0304 210.846Z" fill="#0050B2"/>
<path d="M225.04 188.72L204.16 209.312V213.92H218.56V201.68L224.32 195.92V224H218.56V218.96H199.12V209.168C199.12 208.592 199.12 208.136 199.12 207.8C199.168 207.464 199.24 207.176 199.336 206.936C199.432 206.648 199.576 206.408 199.768 206.216C199.96 205.976 200.2 205.688 200.488 205.352L216.976 188.72H225.04ZM261.726 218.96C261.726 220.352 261.222 221.552 260.214 222.56C259.254 223.52 258.078 224 256.686 224H241.566C240.174 224 238.974 223.52 237.966 222.56C237.006 221.552 236.526 220.352 236.526 218.96V193.76C236.526 192.368 237.006 191.192 237.966 190.232C238.974 189.224 240.174 188.72 241.566 188.72H256.686C258.078 188.72 259.254 189.224 260.214 190.232C261.222 191.192 261.726 192.368 261.726 193.76V218.96ZM255.966 218.96V193.76H242.286V218.96H255.966ZM299.853 188.72L278.973 209.312V213.92H293.373V201.68L299.133 195.92V224H293.373V218.96H273.933V209.168C273.933 208.592 273.933 208.136 273.933 207.8C273.981 207.464 274.053 207.176 274.149 206.936C274.245 206.648 274.389 206.408 274.581 206.216C274.773 205.976 275.013 205.688 275.301 205.352L291.789 188.72H299.853Z" fill="white"/>
<path d="M199.36 258.964H194.32L187.48 244.024H186.04L187.12 245.824V258.964H184.24V241.324H189.316L196.12 256.264H197.56L196.48 254.464V241.324H199.36V258.964ZM217.706 256.48C217.706 257.176 217.454 257.776 216.95 258.28C216.47 258.76 215.882 259 215.186 259H207.626C206.93 259 206.33 258.76 205.826 258.28C205.346 257.776 205.106 257.176 205.106 256.48V248.92C205.106 248.224 205.346 247.636 205.826 247.156C206.33 246.652 206.93 246.4 207.626 246.4H215.186C215.882 246.4 216.47 246.652 216.95 247.156C217.454 247.636 217.706 248.224 217.706 248.92V256.48ZM215.186 256.84V248.56H207.626V256.84H215.186ZM231.034 259H225.994C225.298 259 224.698 258.76 224.194 258.28C223.714 257.776 223.474 257.176 223.474 256.48V248.56H219.874L222.034 246.4H223.474V243.88L225.994 241.36V246.4H231.034V248.56H225.994V256.84H231.034V259ZM255.164 253.96H245.444V259H242.564V246.4L245.084 243.88H242.564V241.36H255.164V243.88H245.444V253.6L247.604 251.44H255.164V253.96ZM272.093 256.48C272.093 257.176 271.841 257.776 271.337 258.28C270.857 258.76 270.269 259 269.573 259H262.013C261.317 259 260.717 258.76 260.213 258.28C259.733 257.776 259.493 257.176 259.493 256.48V248.92C259.493 248.224 259.733 247.636 260.213 247.156C260.717 246.652 261.317 246.4 262.013 246.4H269.573C270.269 246.4 270.857 246.652 271.337 247.156C271.841 247.636 272.093 248.224 272.093 248.92V256.48ZM269.573 256.84V248.56H262.013V256.84H269.573ZM289.741 259H287.221V257.2L285.421 259H279.661C278.965 259 278.365 258.76 277.861 258.28C277.381 257.776 277.141 257.176 277.141 256.48V246.4H279.661V256.84H287.221V246.4H289.741V259ZM307.39 259H304.87V248.56H297.31V259H294.79V246.4H297.31V248.2L299.11 246.4H304.87C305.566 246.4 306.154 246.652 306.634 247.156C307.138 247.636 307.39 248.224 307.39 248.92V259ZM325.038 259H322.518V257.2L320.718 259H314.958C314.262 259 313.662 258.76 313.158 258.28C312.678 257.776 312.438 257.176 312.438 256.48V248.92C312.438 248.224 312.678 247.636 313.158 247.156C313.662 246.652 314.262 246.4 314.958 246.4H322.518V240.64L325.038 238.12V259ZM322.518 256.84V246.76L320.718 248.56H314.958V256.84H322.518Z" fill="white"/>
</svg>
